<mxfile host="app.diagrams.net" modified="2023-04-23T04:49:44.090Z" agent="Mozilla/5.0 (Windows NT 10.0; Win64; x64) AppleWebKit/537.36 (KHTML, like Gecko) Chrome/112.0.0.0 Safari/537.36" etag="yuDrYjGAdVVktf3N7s-y" version="21.2.1" type="device">
  <diagram name="Page-1" id="hJf88xYqBfoKlu-qyToK">
    <mxGraphModel dx="613" dy="662" grid="1" gridSize="10" guides="1" tooltips="1" connect="1" arrows="1" fold="1" page="1" pageScale="1" pageWidth="827" pageHeight="1169" math="0" shadow="0">
      <root>
        <mxCell id="0" />
        <mxCell id="1" parent="0" />
        <mxCell id="rbzyWW9KwPvfmTQ9ihl9-12" style="edgeStyle=orthogonalEdgeStyle;rounded=0;orthogonalLoop=1;jettySize=auto;html=1;exitX=0.5;exitY=1;exitDx=0;exitDy=0;entryX=0.5;entryY=0;entryDx=0;entryDy=0;" edge="1" parent="1" source="rbzyWW9KwPvfmTQ9ihl9-1" target="rbzyWW9KwPvfmTQ9ihl9-2">
          <mxGeometry relative="1" as="geometry" />
        </mxCell>
        <mxCell id="rbzyWW9KwPvfmTQ9ihl9-1" value="" style="ellipse;whiteSpace=wrap;html=1;aspect=fixed;" vertex="1" parent="1">
          <mxGeometry x="80" y="40" width="40" height="40" as="geometry" />
        </mxCell>
        <mxCell id="rbzyWW9KwPvfmTQ9ihl9-10" style="edgeStyle=orthogonalEdgeStyle;rounded=0;orthogonalLoop=1;jettySize=auto;html=1;exitX=1;exitY=0.25;exitDx=0;exitDy=0;entryX=0;entryY=0.5;entryDx=0;entryDy=0;" edge="1" parent="1" source="rbzyWW9KwPvfmTQ9ihl9-2" target="rbzyWW9KwPvfmTQ9ihl9-9">
          <mxGeometry relative="1" as="geometry" />
        </mxCell>
        <mxCell id="rbzyWW9KwPvfmTQ9ihl9-11" value="Place Order" style="edgeLabel;html=1;align=center;verticalAlign=middle;resizable=0;points=[];" vertex="1" connectable="0" parent="rbzyWW9KwPvfmTQ9ihl9-10">
          <mxGeometry x="-0.2833" y="1" relative="1" as="geometry">
            <mxPoint y="-35" as="offset" />
          </mxGeometry>
        </mxCell>
        <mxCell id="rbzyWW9KwPvfmTQ9ihl9-39" style="edgeStyle=orthogonalEdgeStyle;rounded=0;orthogonalLoop=1;jettySize=auto;html=1;exitX=0.25;exitY=1;exitDx=0;exitDy=0;entryX=0.25;entryY=0;entryDx=0;entryDy=0;" edge="1" parent="1" source="rbzyWW9KwPvfmTQ9ihl9-2" target="rbzyWW9KwPvfmTQ9ihl9-26">
          <mxGeometry relative="1" as="geometry" />
        </mxCell>
        <mxCell id="rbzyWW9KwPvfmTQ9ihl9-2" value="Vertical Container" style="swimlane;whiteSpace=wrap;html=1;" vertex="1" parent="1">
          <mxGeometry y="100" width="200" height="150" as="geometry" />
        </mxCell>
        <mxCell id="rbzyWW9KwPvfmTQ9ihl9-5" style="edgeStyle=orthogonalEdgeStyle;rounded=0;orthogonalLoop=1;jettySize=auto;html=1;exitX=1;exitY=0.5;exitDx=0;exitDy=0;entryX=0.5;entryY=0;entryDx=0;entryDy=0;" edge="1" parent="rbzyWW9KwPvfmTQ9ihl9-2" source="rbzyWW9KwPvfmTQ9ihl9-3" target="rbzyWW9KwPvfmTQ9ihl9-4">
          <mxGeometry relative="1" as="geometry" />
        </mxCell>
        <mxCell id="rbzyWW9KwPvfmTQ9ihl9-7" value="Total Price" style="edgeLabel;html=1;align=center;verticalAlign=middle;resizable=0;points=[];" vertex="1" connectable="0" parent="rbzyWW9KwPvfmTQ9ihl9-5">
          <mxGeometry x="-0.6296" relative="1" as="geometry">
            <mxPoint x="15" as="offset" />
          </mxGeometry>
        </mxCell>
        <mxCell id="rbzyWW9KwPvfmTQ9ihl9-3" value="Browse" style="rounded=1;whiteSpace=wrap;html=1;" vertex="1" parent="rbzyWW9KwPvfmTQ9ihl9-2">
          <mxGeometry x="10" y="31" width="70" height="40" as="geometry" />
        </mxCell>
        <mxCell id="rbzyWW9KwPvfmTQ9ihl9-6" style="edgeStyle=orthogonalEdgeStyle;rounded=0;orthogonalLoop=1;jettySize=auto;html=1;exitX=0;exitY=0.5;exitDx=0;exitDy=0;entryX=0.5;entryY=1;entryDx=0;entryDy=0;" edge="1" parent="rbzyWW9KwPvfmTQ9ihl9-2" source="rbzyWW9KwPvfmTQ9ihl9-4" target="rbzyWW9KwPvfmTQ9ihl9-3">
          <mxGeometry relative="1" as="geometry" />
        </mxCell>
        <mxCell id="rbzyWW9KwPvfmTQ9ihl9-8" value="Item" style="edgeLabel;html=1;align=center;verticalAlign=middle;resizable=0;points=[];" vertex="1" connectable="0" parent="rbzyWW9KwPvfmTQ9ihl9-6">
          <mxGeometry x="-0.6593" y="1" relative="1" as="geometry">
            <mxPoint as="offset" />
          </mxGeometry>
        </mxCell>
        <mxCell id="rbzyWW9KwPvfmTQ9ihl9-4" value="ListPrice" style="rounded=1;whiteSpace=wrap;html=1;" vertex="1" parent="rbzyWW9KwPvfmTQ9ihl9-2">
          <mxGeometry x="120" y="100" width="70" height="40" as="geometry" />
        </mxCell>
        <mxCell id="rbzyWW9KwPvfmTQ9ihl9-14" style="edgeStyle=orthogonalEdgeStyle;rounded=0;orthogonalLoop=1;jettySize=auto;html=1;exitX=0.5;exitY=1;exitDx=0;exitDy=0;entryX=0.5;entryY=0;entryDx=0;entryDy=0;" edge="1" parent="1" source="rbzyWW9KwPvfmTQ9ihl9-9" target="rbzyWW9KwPvfmTQ9ihl9-13">
          <mxGeometry relative="1" as="geometry" />
        </mxCell>
        <mxCell id="rbzyWW9KwPvfmTQ9ihl9-9" value="Verifying" style="rounded=1;whiteSpace=wrap;html=1;" vertex="1" parent="1">
          <mxGeometry x="315.88" y="45" width="120" height="60" as="geometry" />
        </mxCell>
        <mxCell id="rbzyWW9KwPvfmTQ9ihl9-17" style="edgeStyle=orthogonalEdgeStyle;rounded=0;orthogonalLoop=1;jettySize=auto;html=1;exitX=0;exitY=0.5;exitDx=0;exitDy=0;entryX=0.5;entryY=0;entryDx=0;entryDy=0;" edge="1" parent="1" source="rbzyWW9KwPvfmTQ9ihl9-13" target="rbzyWW9KwPvfmTQ9ihl9-15">
          <mxGeometry relative="1" as="geometry" />
        </mxCell>
        <mxCell id="rbzyWW9KwPvfmTQ9ihl9-35" value="Yes" style="edgeLabel;html=1;align=center;verticalAlign=middle;resizable=0;points=[];" vertex="1" connectable="0" parent="rbzyWW9KwPvfmTQ9ihl9-17">
          <mxGeometry x="-0.5719" y="-1" relative="1" as="geometry">
            <mxPoint as="offset" />
          </mxGeometry>
        </mxCell>
        <mxCell id="rbzyWW9KwPvfmTQ9ihl9-18" style="edgeStyle=orthogonalEdgeStyle;rounded=0;orthogonalLoop=1;jettySize=auto;html=1;exitX=1;exitY=0.5;exitDx=0;exitDy=0;entryX=0.5;entryY=0;entryDx=0;entryDy=0;" edge="1" parent="1" source="rbzyWW9KwPvfmTQ9ihl9-13" target="rbzyWW9KwPvfmTQ9ihl9-16">
          <mxGeometry relative="1" as="geometry" />
        </mxCell>
        <mxCell id="rbzyWW9KwPvfmTQ9ihl9-36" value="No" style="edgeLabel;html=1;align=center;verticalAlign=middle;resizable=0;points=[];" vertex="1" connectable="0" parent="rbzyWW9KwPvfmTQ9ihl9-18">
          <mxGeometry x="0.1509" y="3" relative="1" as="geometry">
            <mxPoint as="offset" />
          </mxGeometry>
        </mxCell>
        <mxCell id="rbzyWW9KwPvfmTQ9ihl9-13" value="" style="rhombus;whiteSpace=wrap;html=1;" vertex="1" parent="1">
          <mxGeometry x="355.88" y="145" width="40" height="40" as="geometry" />
        </mxCell>
        <mxCell id="rbzyWW9KwPvfmTQ9ihl9-21" style="edgeStyle=orthogonalEdgeStyle;rounded=0;orthogonalLoop=1;jettySize=auto;html=1;exitX=1;exitY=0.5;exitDx=0;exitDy=0;entryX=0.5;entryY=0;entryDx=0;entryDy=0;" edge="1" parent="1" source="rbzyWW9KwPvfmTQ9ihl9-15" target="rbzyWW9KwPvfmTQ9ihl9-19">
          <mxGeometry relative="1" as="geometry" />
        </mxCell>
        <mxCell id="rbzyWW9KwPvfmTQ9ihl9-15" value="Confirm Price" style="rounded=1;whiteSpace=wrap;html=1;" vertex="1" parent="1">
          <mxGeometry x="245.88" y="185" width="70" height="40" as="geometry" />
        </mxCell>
        <mxCell id="rbzyWW9KwPvfmTQ9ihl9-16" value="Cancel Order" style="rounded=1;whiteSpace=wrap;html=1;" vertex="1" parent="1">
          <mxGeometry x="435.88" y="185" width="70" height="40" as="geometry" />
        </mxCell>
        <mxCell id="rbzyWW9KwPvfmTQ9ihl9-22" style="edgeStyle=orthogonalEdgeStyle;rounded=0;orthogonalLoop=1;jettySize=auto;html=1;exitX=1;exitY=0.5;exitDx=0;exitDy=0;entryX=0.5;entryY=1;entryDx=0;entryDy=0;" edge="1" parent="1" source="rbzyWW9KwPvfmTQ9ihl9-19" target="rbzyWW9KwPvfmTQ9ihl9-16">
          <mxGeometry relative="1" as="geometry" />
        </mxCell>
        <mxCell id="rbzyWW9KwPvfmTQ9ihl9-37" value="Invalid Price" style="edgeLabel;html=1;align=center;verticalAlign=middle;resizable=0;points=[];" vertex="1" connectable="0" parent="rbzyWW9KwPvfmTQ9ihl9-22">
          <mxGeometry x="-0.4456" y="-3" relative="1" as="geometry">
            <mxPoint x="13" y="-3" as="offset" />
          </mxGeometry>
        </mxCell>
        <mxCell id="rbzyWW9KwPvfmTQ9ihl9-25" style="edgeStyle=orthogonalEdgeStyle;rounded=0;orthogonalLoop=1;jettySize=auto;html=1;exitX=0.5;exitY=1;exitDx=0;exitDy=0;entryX=0.5;entryY=0;entryDx=0;entryDy=0;" edge="1" parent="1" source="rbzyWW9KwPvfmTQ9ihl9-19" target="rbzyWW9KwPvfmTQ9ihl9-24">
          <mxGeometry relative="1" as="geometry" />
        </mxCell>
        <mxCell id="rbzyWW9KwPvfmTQ9ihl9-38" value="Valid" style="edgeLabel;html=1;align=center;verticalAlign=middle;resizable=0;points=[];" vertex="1" connectable="0" parent="rbzyWW9KwPvfmTQ9ihl9-25">
          <mxGeometry x="-0.7333" relative="1" as="geometry">
            <mxPoint y="15" as="offset" />
          </mxGeometry>
        </mxCell>
        <mxCell id="rbzyWW9KwPvfmTQ9ihl9-19" value="" style="rhombus;whiteSpace=wrap;html=1;" vertex="1" parent="1">
          <mxGeometry x="355.88" y="225" width="40" height="40" as="geometry" />
        </mxCell>
        <mxCell id="rbzyWW9KwPvfmTQ9ihl9-24" value="Submit Order" style="rounded=1;whiteSpace=wrap;html=1;" vertex="1" parent="1">
          <mxGeometry x="340.88" y="305" width="70" height="40" as="geometry" />
        </mxCell>
        <mxCell id="rbzyWW9KwPvfmTQ9ihl9-30" style="edgeStyle=orthogonalEdgeStyle;rounded=0;orthogonalLoop=1;jettySize=auto;html=1;exitX=0.25;exitY=1;exitDx=0;exitDy=0;entryX=0.75;entryY=1;entryDx=0;entryDy=0;" edge="1" parent="1" source="rbzyWW9KwPvfmTQ9ihl9-26" target="rbzyWW9KwPvfmTQ9ihl9-26">
          <mxGeometry relative="1" as="geometry">
            <mxPoint x="120" y="380" as="targetPoint" />
            <Array as="points">
              <mxPoint x="70" y="340" />
              <mxPoint x="130" y="340" />
            </Array>
          </mxGeometry>
        </mxCell>
        <mxCell id="rbzyWW9KwPvfmTQ9ihl9-31" value="add" style="edgeLabel;html=1;align=center;verticalAlign=middle;resizable=0;points=[];" vertex="1" connectable="0" parent="rbzyWW9KwPvfmTQ9ihl9-30">
          <mxGeometry x="0.2833" y="-2" relative="1" as="geometry">
            <mxPoint x="-17" as="offset" />
          </mxGeometry>
        </mxCell>
        <mxCell id="rbzyWW9KwPvfmTQ9ihl9-40" style="edgeStyle=orthogonalEdgeStyle;rounded=0;orthogonalLoop=1;jettySize=auto;html=1;exitX=0.75;exitY=0;exitDx=0;exitDy=0;entryX=0.75;entryY=1;entryDx=0;entryDy=0;" edge="1" parent="1" source="rbzyWW9KwPvfmTQ9ihl9-26" target="rbzyWW9KwPvfmTQ9ihl9-2">
          <mxGeometry relative="1" as="geometry" />
        </mxCell>
        <mxCell id="rbzyWW9KwPvfmTQ9ihl9-26" value="Coupon" style="rounded=1;whiteSpace=wrap;html=1;" vertex="1" parent="1">
          <mxGeometry x="40" y="280" width="120" height="40" as="geometry" />
        </mxCell>
      </root>
    </mxGraphModel>
  </diagram>
</mxfile>
